<svg width="118" height="38" viewBox="0 0 118 38" fill="none" xmlns="http://www.w3.org/2000/svg">
<rect x="1" y="1" width="116" height="36" stroke="black" stroke-width="2"/>
<rect width="2" height="31" fill="black"/>
<path d="M32.75 24.75V12.5H36.25V23H43.25V24.75H32.75ZM50.25 14.25V12.5H53.75V14.25H50.25ZM46.75 24.75V23H50.25V17.75H48.5V16H53.75V23H57.25V24.75H46.75ZM59 24.75V12.5H62.5V19.5H66V17.75H67.75V16H71.25V17.75H69.5V19.5H67.75V21.25H69.5V23H71.25V24.75H67.75V23H66V21.25H62.5V24.75H59ZM74.75 24.75V23H73V17.75H74.75V16H83.5V17.75H85.25V21.25H76.5V23H83.5V24.75H74.75ZM76.5 19.5H81.75V17.75H76.5V19.5Z" fill="black"/>
</svg>
